<svg id="Logo" xmlns="http://www.w3.org/2000/svg" xmlns:xlink="http://www.w3.org/1999/xlink" width="215.742" height="87.463" viewBox="0 0 215.742 87.463">
  <defs>
    <linearGradient id="linear-gradient" x1="0.125" y1="0.562" x2="2.333" y2="0.394" gradientUnits="objectBoundingBox">
      <stop offset="0" stop-color="#708cee"/>
      <stop offset="1" stop-color="#232055"/>
    </linearGradient>
    <linearGradient id="linear-gradient-2" x1="-0.092" y1="0.757" x2="9.106" y2="0.13" xlink:href="#linear-gradient"/>
    <linearGradient id="linear-gradient-3" x1="-0.643" y1="0.779" x2="6.044" y2="0.171" xlink:href="#linear-gradient"/>
    <linearGradient id="linear-gradient-4" x1="-1.994" y1="0.403" x2="6.988" y2="-0.006" xlink:href="#linear-gradient"/>
    <linearGradient id="linear-gradient-5" x1="-5.456" y1="0.916" x2="6.254" y2="0.078" xlink:href="#linear-gradient"/>
    <linearGradient id="linear-gradient-6" x1="-4.423" y1="1.031" x2="3.311" y2="0.178" xlink:href="#linear-gradient"/>
    <linearGradient id="linear-gradient-7" x1="-8.466" y1="0.697" x2="3.245" y2="0.073" xlink:href="#linear-gradient"/>
    <linearGradient id="linear-gradient-8" x1="-12.007" y1="1.208" x2="2.541" y2="0.318" xlink:href="#linear-gradient"/>
    <linearGradient id="linear-gradient-9" x1="-12.008" y1="1.268" x2="1.135" y2="0.395" xlink:href="#linear-gradient"/>
    <linearGradient id="linear-gradient-10" x1="-21.09" y1="1.392" x2="0.031" y2="0.676" xlink:href="#linear-gradient"/>
  </defs>
  <path id="Path_8963" data-name="Path 8963" d="M44.111,87.463A43.733,43.733,0,1,0,0,43.732,43.922,43.922,0,0,0,44.111,87.463Zm0-4.012A39.721,39.721,0,1,0,4.047,43.732,39.894,39.894,0,0,0,44.111,83.451Z" fill-rule="evenodd" fill="url(#linear-gradient)"/>
  <path id="Path_8964" data-name="Path 8964" d="M27.208,24.609a.364.364,0,0,0,.593-.039.363.363,0,0,1,.671.153l1.586,17.939a1.946,1.946,0,0,1-3.324,1.523l-.875-.88a.813.813,0,0,1-.236-.573.938.938,0,0,0-1.474-.7,8.867,8.867,0,0,1-5.077,1.64,9.477,9.477,0,0,1-7.318-3.168,11.713,11.713,0,0,1-2.87-8.073,11.351,11.351,0,0,1,2.87-7.92,9.29,9.29,0,0,1,7.185-3.169c2.484,0,5.5.254,7.471,2.28ZM13.923,32.433a7.31,7.31,0,0,0,1.643,4.947,5.4,5.4,0,0,0,4.251,1.931,5.682,5.682,0,0,0,4.426-1.866,7.187,7.187,0,0,0,1.687-4.9,7.184,7.184,0,0,0-1.687-4.9,5.6,5.6,0,0,0-4.382-1.889,5.472,5.472,0,0,0-4.251,1.91A7,7,0,0,0,13.923,32.433Z" transform="translate(4.066 9.77)" fill="url(#linear-gradient-2)"/>
  <path id="Path_8965" data-name="Path 8965" d="M22.5,28a1.992,1.992,0,0,0,.019-.28,1.907,1.907,0,0,1,.02-.273l.453-3.14a1.739,1.739,0,0,1,.534-1.047,9.145,9.145,0,0,1,2.359-1.51,8.45,8.45,0,0,1,3.646-.555,8.5,8.5,0,0,1,4.586,1.43,3.758,3.758,0,0,0,3.943.007,7.622,7.622,0,0,1,4.309-1.217q7.209,0,7.208,8.659V41.206a1.937,1.937,0,0,1-1.945,1.93H46.573a1.939,1.939,0,0,1-1.946-1.93V31.4a8.971,8.971,0,0,0-.745-4.3,2.7,2.7,0,0,0-2.519-1.281,3.25,3.25,0,0,0-2.98,1.519,9.8,9.8,0,0,0-.92,4.883v8.985a1.939,1.939,0,0,1-1.946,1.93h-1.06a1.939,1.939,0,0,1-1.946-1.93V31.461q0-5.641-3.286-5.643a3.333,3.333,0,0,0-3.047,1.541,9.644,9.644,0,0,0-.942,4.861V43.368a1.947,1.947,0,0,1-3.331,1.353l-.9-.905a1.922,1.922,0,0,1-.541-1.625Z" transform="translate(9.358 9.7)" fill="url(#linear-gradient-3)"/>
  <path id="Path_8966" data-name="Path 8966" d="M41.932,55.123A1.949,1.949,0,0,1,38.6,56.47l-1.006-1.017a1.924,1.924,0,0,1-.557-1.35V25.031a1.27,1.27,0,0,1,2.106-.945l.028.023a1.071,1.071,0,0,0,.357.207,1.168,1.168,0,0,0,1.14-.238,11.912,11.912,0,0,1,7.083-2.886A11.222,11.222,0,0,1,58.725,32.929a11.352,11.352,0,0,1-2.87,7.921A9.276,9.276,0,0,1,48.668,44a8.707,8.707,0,0,1-2.775-.443c-1.647-.548-3.934.436-3.939,2.159ZM53.686,32.951A7.261,7.261,0,0,0,52.021,28a5.406,5.406,0,0,0-4.251-1.93,5.657,5.657,0,0,0-4.4,1.866,7.028,7.028,0,0,0-1.687,4.9,7.177,7.177,0,0,0,1.687,4.9,5.56,5.56,0,0,0,4.382,1.888,5.364,5.364,0,0,0,4.229-1.91A6.9,6.9,0,0,0,53.686,32.951Z" transform="translate(16.951 9.7)" fill="url(#linear-gradient-4)"/>
  <path id="Path_8967" data-name="Path 8967" d="M84.742,25.132a1.844,1.844,0,0,1,1.908,1.924V40.4a1.937,1.937,0,0,1-.541,1.388,2.013,2.013,0,0,1-2.736,0,2.01,2.01,0,0,1-.541-1.356,6.673,6.673,0,0,1-2.163,1.577,6.557,6.557,0,0,1-2.831.63,7.4,7.4,0,0,1-3.977-1.1,8.111,8.111,0,0,1-2.831-3.122,10.5,10.5,0,0,1,0-9.019A7.692,7.692,0,0,1,73.8,26.268a7.134,7.134,0,0,1,3.913-1.136,7.884,7.884,0,0,1,5.121,1.956v-.032a1.83,1.83,0,0,1,.541-1.356A1.807,1.807,0,0,1,84.742,25.132ZM78.315,39.167a4.286,4.286,0,0,0,3.373-1.483,5.6,5.6,0,0,0,1.3-3.784,5.593,5.593,0,0,0-1.3-3.784,4.476,4.476,0,0,0-6.713,0,5.594,5.594,0,0,0-1.3,3.784,5.682,5.682,0,0,0,1.273,3.784A4.285,4.285,0,0,0,78.315,39.167Z" transform="translate(32.046 11.503)" fill="url(#linear-gradient-5)"/>
  <path id="Path_8968" data-name="Path 8968" d="M103.891,25.132q3.149,0,4.359,1.924a9.76,9.76,0,0,1,1.208,5.267V40.4a1.937,1.937,0,0,1-.541,1.388,2.013,2.013,0,0,1-2.736,0,1.937,1.937,0,0,1-.541-1.388V32.323a4.6,4.6,0,0,0-.7-2.713,2.647,2.647,0,0,0-2.385-1.009,3.537,3.537,0,0,0-3.786,3.722V40.4a1.937,1.937,0,0,1-.541,1.388,2.013,2.013,0,0,1-2.736,0,1.937,1.937,0,0,1-.541-1.388V32.323a4.6,4.6,0,0,0-.7-2.713A2.65,2.65,0,0,0,91.866,28.6a3.539,3.539,0,0,0-3.786,3.722V40.4a1.931,1.931,0,0,1-.541,1.388,2.011,2.011,0,0,1-2.735,0,1.931,1.931,0,0,1-.541-1.388V27.371a1.824,1.824,0,0,1,.541-1.356,1.932,1.932,0,0,1,2.735,0,1.824,1.824,0,0,1,.541,1.356v.5a7.617,7.617,0,0,1,2.163-1.923,5.548,5.548,0,0,1,2.959-.821q4.008,0,5.121,3.469a7.513,7.513,0,0,1,2.2-2.4A5.641,5.641,0,0,1,103.891,25.132Z" transform="translate(38.569 11.503)" fill="url(#linear-gradient-6)"/>
  <path id="Path_8969" data-name="Path 8969" d="M113.193,25.132a7.249,7.249,0,0,1,3.977,1.136,7.664,7.664,0,0,1,2.8,3.09,9.509,9.509,0,0,1,1.05,4.51A9.949,9.949,0,0,1,120,38.409a7.873,7.873,0,0,1-2.8,3.122,7.341,7.341,0,0,1-6.775.5,7.909,7.909,0,0,1-2.226-1.513V46.7a1.836,1.836,0,0,1-.541,1.357,1.813,1.813,0,0,1-1.369.567,1.844,1.844,0,0,1-1.908-1.924V27.371a1.83,1.83,0,0,1,.541-1.356,1.934,1.934,0,0,1,2.736,0,1.83,1.83,0,0,1,.541,1.356V27.5a6.387,6.387,0,0,1,2.131-1.64A6.023,6.023,0,0,1,113.193,25.132Zm-.478,14.035a4.209,4.209,0,0,0,3.341-1.515,5.593,5.593,0,0,0,1.3-3.784,5.472,5.472,0,0,0-1.3-3.752,4.151,4.151,0,0,0-3.341-1.515,4.244,4.244,0,0,0-3.372,1.515,5.472,5.472,0,0,0-1.3,3.752,5.592,5.592,0,0,0,1.3,3.784A4.244,4.244,0,0,0,112.715,39.167Z" transform="translate(47.777 11.503)" fill="url(#linear-gradient-7)"/>
  <path id="Path_8970" data-name="Path 8970" d="M125.949,25.608a5.176,5.176,0,0,1,4.326,1.735,6.93,6.93,0,0,1,1.4,4.541v9.273a.946.946,0,0,1-.286.694.983.983,0,0,1-.669.252,1.024,1.024,0,0,1-.7-.252,1.006,1.006,0,0,1-.254-.694V31.978a5,5,0,0,0-1.051-3.31,3.794,3.794,0,0,0-3.181-1.293,5.686,5.686,0,0,0-2.608.63,5.505,5.505,0,0,0-1.972,1.7,3.758,3.758,0,0,0-.764,2.27v9.178a.941.941,0,0,1-.286.694.912.912,0,0,1-.669.252,1.024,1.024,0,0,1-.7-.252,1.006,1.006,0,0,1-.254-.694V27.028a.9.9,0,0,1,.254-.663.96.96,0,0,1,.7-.283.859.859,0,0,1,.669.283.842.842,0,0,1,.286.663v1.735a7.238,7.238,0,0,1,5.758-3.154Z" transform="translate(54.14 11.721)" fill="url(#linear-gradient-8)"/>
  <path id="Path_8971" data-name="Path 8971" d="M144.981,33.114a.911.911,0,0,1-.286.663.983.983,0,0,1-.669.252H132a7.458,7.458,0,0,0,.764,3.405,6.15,6.15,0,0,0,2.227,2.366,6.715,6.715,0,0,0,3.436.851,5.813,5.813,0,0,0,2.735-.631,5.606,5.606,0,0,0,1.94-1.608,1.081,1.081,0,0,1,.669-.284.794.794,0,0,1,.571.252.78.78,0,0,1,.255.569.934.934,0,0,1-.318.662A7.973,7.973,0,0,1,141.7,41.63a6.98,6.98,0,0,1-3.245.787,8.767,8.767,0,0,1-4.325-1.041,7.42,7.42,0,0,1-2.927-2.9,8.82,8.82,0,0,1-1.05-4.353,9.517,9.517,0,0,1,1.017-4.509,7.393,7.393,0,0,1,2.768-2.965,6.939,6.939,0,0,1,3.657-1.041,7.445,7.445,0,0,1,3.563.883,6.989,6.989,0,0,1,2.736,2.586A7.756,7.756,0,0,1,144.981,33.114Zm-7.38-5.676a5.422,5.422,0,0,0-3.436,1.261,5.87,5.87,0,0,0-2,3.627h10.847v-.252a4.855,4.855,0,0,0-.955-2.459,4.958,4.958,0,0,0-2-1.609A5.581,5.581,0,0,0,137.6,27.437Z" transform="translate(59.575 11.721)" fill="url(#linear-gradient-9)"/>
  <path id="Path_8972" data-name="Path 8972" d="M146.825,29.074V39.638a2.313,2.313,0,0,0,.445,1.64,1.668,1.668,0,0,0,1.178.41,2.276,2.276,0,0,0,.477-.063,1.554,1.554,0,0,1,.446-.095.579.579,0,0,1,.477.252.728.728,0,0,1,.223.536.9.9,0,0,1-.51.757,2.437,2.437,0,0,1-1.208.284,6.675,6.675,0,0,1-1.526-.157,2.494,2.494,0,0,1-1.3-.946,4.183,4.183,0,0,1-.6-2.523V29.074h-2.322a.977.977,0,0,1-.668-.254.91.91,0,0,1,0-1.261.982.982,0,0,1,.668-.252h2.322v-3.5a.9.9,0,0,1,.255-.663.96.96,0,0,1,.7-.283.856.856,0,0,1,.668.283.843.843,0,0,1,.287.663v3.5h3.181a.788.788,0,0,1,.6.284.87.87,0,0,1,.286.63.847.847,0,0,1-.255.631.933.933,0,0,1-.636.222Z" transform="translate(64.846 10.464)" fill="url(#linear-gradient-10)"/>
</svg>
