<?xml version="1.0" encoding="UTF-8" standalone="no"?>
<svg
   xmlns:dc="http://purl.org/dc/elements/1.1/"
   xmlns:cc="http://creativecommons.org/ns#"
   xmlns:rdf="http://www.w3.org/1999/02/22-rdf-syntax-ns#"
   xmlns:svg="http://www.w3.org/2000/svg"
   xmlns="http://www.w3.org/2000/svg"
   viewBox="0 0 1385.2862 236.98978"
   height="236.98978"
   width="1385.2863"
   xml:space="preserve"
   id="svg10"
   version="1.1"><metadata
     id="metadata16"><rdf:RDF><cc:Work
         rdf:about=""><dc:format>image/svg+xml</dc:format><dc:type
           rdf:resource="http://purl.org/dc/dcmitype/StillImage" /><dc:title></dc:title></cc:Work></rdf:RDF></metadata><defs
     id="defs14"><clipPath
       id="clipPath26"
       clipPathUnits="userSpaceOnUse"><path
         id="path24"
         d="M 0,589.062 H 1319 V 0 H 0 Z" /></clipPath></defs><g
     transform="matrix(1.3333333,0,0,-1.3333333,-179.60786,508.78692)"
     id="g18"><g
       id="g20"><g
         clip-path="url(#clipPath26)"
         id="g22"><g
           transform="translate(380.9268,325.9463)"
           id="g28"><path
             id="path30"
             style="fill:#134679;fill-opacity:1;fill-rule:nonzero;stroke:none"
             d="M 0,0 C 15.037,0 22.932,-8.011 23.466,-23.722 H -25.908 C -24.187,-8.414 -15,0 0,0 m 39.634,-23.985 c 0,6.399 -1.906,38.364 -39.634,38.364 -27.069,0 -42.61,-17.06 -42.61,-46.824 0,-30.741 15.418,-47.011 44.592,-47.011 19.561,0 30.223,9.22 32.174,11.049 1.372,1.317 2.72,2.803 2.72,5.546 0,3.966 -3.401,7.174 -7.568,7.174 -1.993,0 -3.124,-0.48 -4.68,-1.472 -5.508,-3.92 -11.792,-7.716 -22.646,-7.716 -16.655,0 -27.331,10.366 -28.013,27.131 h 55.919 c 9.746,0 9.746,8.614 9.746,13.759" /></g><g
           transform="translate(459.1719,262.1865)"
           id="g32"><path
             id="path34"
             style="fill:#134679;fill-opacity:1;fill-rule:nonzero;stroke:none"
             d="m 0,0 c -3.144,0 -6.074,1.086 -6.074,8.971 v 85.901 c 0,4.292 -3.64,7.762 -8.15,7.762 -4.369,0 -8.187,-3.61 -8.187,-7.762 V 8.971 c 0,-15.308 7.971,-23.705 22.411,-23.705 4.308,0 7.795,3.315 7.795,7.374 C 7.795,-3.299 4.308,0 0,0" /></g><g
           transform="translate(517.0601,325.9463)"
           id="g36"><path
             id="path38"
             style="fill:#134679;fill-opacity:1;fill-rule:nonzero;stroke:none"
             d="m 0,0 c 15.044,0 22.931,-8.011 23.474,-23.722 h -49.38 C -24.187,-8.414 -15.014,0 0,0 m 39.634,-23.985 c 0,6.399 -1.905,38.364 -39.634,38.364 -27.07,0 -42.61,-17.06 -42.61,-46.824 0,-30.741 15.418,-47.011 44.584,-47.011 19.547,0 30.231,9.22 32.174,11.049 1.38,1.301 2.72,2.803 2.72,5.546 0,3.966 -3.402,7.174 -7.583,7.174 -1.968,0 -3.061,-0.449 -4.649,-1.472 -5.516,-3.92 -11.806,-7.716 -22.662,-7.716 -16.647,0 -27.323,10.366 -28.013,27.131 h 55.926 c 9.747,0 9.747,8.614 9.747,13.759" /></g><g
           transform="translate(639.6978,270.2593)"
           id="g40"><path
             id="path42"
             style="fill:#134679;fill-opacity:1;fill-rule:nonzero;stroke:none"
             d="m 0,0 c -1.766,0 -3.084,-0.449 -4.897,-1.688 -4.37,-3.053 -10.984,-7.671 -21.815,-7.671 -17.54,0 -26.078,10.645 -26.078,32.601 0,21.522 8.785,32.445 26.078,32.445 12.364,0 17.337,-5.345 19.995,-8.228 1.805,-1.968 3.71,-2.835 6.143,-2.835 4.308,0 7.561,3.084 7.561,7.19 0,1.627 -0.472,2.912 -1.727,4.539 -1.75,2.325 -11.519,13.713 -31.972,13.713 -27.874,0 -42.611,-16.192 -42.611,-46.824 0,-30.741 14.737,-47.011 42.611,-47.011 17.484,0 27.735,7.965 31.112,10.631 2.231,1.888 3.191,3.656 3.191,5.964 C 7.591,-3.208 4.19,0 0,0" /></g><g
           transform="translate(811.8008,260.9004)"
           id="g44"><path
             id="path46"
             style="fill:#134679;fill-opacity:1;fill-rule:nonzero;stroke:none"
             d="m 0,0 c -18.066,0 -26.835,10.645 -26.835,32.601 0,21.522 9.017,32.445 26.835,32.445 17.833,0 26.867,-10.923 26.867,-32.445 C 26.867,10.645 18.082,0 0,0 m 0,79.425 c -27.983,0 -43.393,-16.625 -43.393,-46.824 0,-30.292 15.41,-47.011 43.393,-47.011 27.999,0 43.415,16.719 43.415,47.011 C 43.415,62.8 27.999,79.425 0,79.425" /></g><g
           transform="translate(938.4199,270.2593)"
           id="g48"><path
             id="path50"
             style="fill:#767879;fill-opacity:1;fill-rule:nonzero;stroke:none"
             d="m 0,0 c -1.765,0 -3.083,-0.449 -4.896,-1.688 -4.385,-3.053 -10.984,-7.671 -21.8,-7.671 -17.571,0 -26.093,10.645 -26.093,32.601 0,21.522 8.771,32.445 26.093,32.445 12.333,0 17.308,-5.345 19.971,-8.228 1.784,-1.937 3.736,-2.835 6.121,-2.835 4.307,0 7.578,3.084 7.578,7.19 0,1.627 -0.498,2.912 -1.751,4.539 -1.72,2.309 -11.451,13.713 -31.919,13.713 -27.889,0 -42.625,-16.192 -42.625,-46.824 0,-30.741 14.736,-47.011 42.625,-47.011 17.464,0 27.688,7.965 31.114,10.631 2.2,1.888 3.16,3.671 3.16,5.964 C 7.578,-3.208 4.169,0 0,0" /></g><g
           transform="translate(1000.04,260.9004)"
           id="g52"><path
             id="path54"
             style="fill:#767879;fill-opacity:1;fill-rule:nonzero;stroke:none"
             d="m 0,0 c -18.064,0 -26.852,10.645 -26.852,32.601 0,21.522 9.037,32.445 26.852,32.445 17.819,0 26.868,-10.923 26.868,-32.445 C 26.868,10.645 18.068,0 0,0 m 0,79.425 c -27.995,0 -43.397,-16.625 -43.397,-46.824 0,-30.292 15.402,-47.011 43.397,-47.011 27.986,0 43.4,16.719 43.4,47.011 C 43.4,62.8 27.986,79.425 0,79.425" /></g><g
           transform="translate(1077.1719,362.25)"
           id="g56"><path
             id="path58"
             style="fill:#767879;fill-opacity:1;fill-rule:nonzero;stroke:none"
             d="m 0,0 c 0,6.058 -3.237,9.249 -9.358,9.249 -6.121,0 -9.343,-3.191 -9.343,-9.249 0,-5.392 3.671,-8.879 9.343,-8.879 C -3.687,-8.879 0,-5.392 0,0" /></g><g
           transform="translate(1067.8135,339.1943)"
           id="g60"><path
             id="path62"
             style="fill:#767879;fill-opacity:1;fill-rule:nonzero;stroke:none"
             d="m 0,0 c -4.569,0 -8.18,-3.41 -8.18,-7.748 v -76.247 c 0,-4.354 3.611,-7.747 8.18,-7.747 4.572,0 8.166,3.393 8.166,7.747 V -7.748 C 8.166,-3.41 4.572,0 0,0" /></g><g
           transform="translate(1158.5186,335.4746)"
           id="g64"><path
             id="path66"
             style="fill:#767879;fill-opacity:1;fill-rule:nonzero;stroke:none"
             d="m 0,0 c -5.949,3.224 -13.667,4.851 -23.087,4.851 -0.433,0 -0.853,-0.047 -1.286,-0.063 -0.433,0.016 -0.854,0.063 -1.303,0.063 -9.42,0 -17.121,-1.627 -23.07,-4.851 -10.086,-5.484 -15.169,-15.541 -15.169,-30.136 v -50.139 c 0,-4.354 3.594,-7.747 8.15,-7.747 4.619,0 8.196,3.393 8.196,7.747 v 46.374 c 0,15.851 7.84,24.032 23.196,24.481 15.341,-0.449 23.193,-8.63 23.193,-24.481 v -46.374 c 0,-4.354 3.58,-7.747 8.151,-7.747 4.601,0 8.181,3.393 8.181,7.747 v 50.139 C 15.152,-15.541 10.069,-5.484 0,0" /></g><g
           transform="translate(756.9585,339.4722)"
           id="g68"><path
             id="path70"
             style="fill:#134679;fill-opacity:1;fill-rule:nonzero;stroke:none"
             d="m 0,0 c -0.333,0.047 -0.69,0.078 -1.054,0.078 h -0.581 -0.588 c -0.433,0 -0.876,-0.031 -1.295,-0.031 -0.449,0 -0.867,0.031 -1.3,0.031 -9.351,0 -16.966,-1.595 -22.901,-4.758 -0.063,-0.045 -0.139,-0.075 -0.178,-0.075 -10.065,-5.47 -15.169,-15.541 -15.169,-30.122 v -49.769 c 0,-4.338 3.587,-7.746 8.173,-7.746 4.587,0 8.172,3.408 8.172,7.746 v 42.068 0.216 3.72 c 0,15.835 7.865,24.016 23.203,24.465 1.705,-0.045 3.302,-0.247 4.82,-0.464 3.245,0.945 5.623,3.78 5.623,7.173 C 6.925,-3.625 3.904,-0.495 0,0" /></g><g
           transform="translate(689.3096,262.1865)"
           id="g72"><path
             id="path74"
             style="fill:#134679;fill-opacity:1;fill-rule:nonzero;stroke:none"
             d="M 0,0 C -6.027,0 -9.622,3.998 -9.622,10.645 V 60.754 H 1.411 c 4.354,0 7.762,3.238 7.762,7.375 0,4.138 -3.408,7.391 -7.762,7.391 H -9.622 v 17.974 c 0,4.275 -3.671,7.746 -8.165,7.746 -4.361,0 -8.172,-3.61 -8.172,-7.746 V 74.854 61.404 43.974 10.645 c 0,-15.433 10.202,-25.379 25.959,-25.379 4.487,0 7.997,3.237 7.997,7.374 C 7.997,-3.222 4.487,0 0,0" /></g><g
           transform="translate(218.5835,266.1841)"
           id="g76"><path
             id="path78"
             style="fill:#767879;fill-opacity:1;fill-rule:nonzero;stroke:none"
             d="m 0,0 c -0.006,-0.031 -0.039,-0.062 -0.053,-0.078 l -28.556,-49.131 c -2.433,-4.169 -1.023,-9.514 3.152,-11.946 4.177,-2.417 9.522,-1.008 11.954,3.16 l 8.291,14.269 c 35.31,3.937 62.782,33.903 62.782,70.269 0,27.393 -15.603,51.146 -38.387,62.89 L -11.272,37.063 H 3.246 c 3.781,0 7.252,-2.015 9.143,-5.269 1.874,-3.283 1.859,-7.297 -0.031,-10.551 z" /></g><g
           transform="translate(192.2749,319.252)"
           id="g80"><path
             id="path82"
             style="fill:#134679;fill-opacity:1;fill-rule:nonzero;stroke:none"
             d="m 0,0 c 0.015,0.047 0.039,0.063 0.053,0.063 l 28.565,49.148 c 2.425,4.183 1.007,9.514 -3.153,11.946 -4.183,2.417 -9.53,1.008 -11.962,-3.161 L 5.229,43.725 c -35.326,-3.951 -62.798,-33.885 -62.798,-70.25 0,-27.411 15.595,-51.163 38.386,-62.908 l 30.455,52.371 H -3.262 c -3.749,0 -7.236,2.015 -9.118,5.284 -1.883,3.269 -1.867,7.282 0.023,10.521 z" /></g></g></g></g></svg>