<svg class="whitebridge-logo" xmlns="http://www.w3.org/2000/svg" viewBox="0 0 600 86"><path class="whitebridge-logo-st0" d="M115.1 67.6l-11.4-5.3c.8-.8 8-10 10.7-13-3.2 2.4-25.4 20.4-26.3 21.1C81.2 64.2 4.1 3.9 0 1c3.5 3.7 87.9 80.3 87.9 80.3s10.7-13.2 11.4-13.8l16.7 8.2 61-66-61.9 57.9z"></path><path class="whitebridge-logo-st0" d="M14.1 7.2c6.3 2.7 12.5 5.3 18.8 7.8 3.2 1.2 6.3 2.4 9.5 3.6l4.8 1.7 4.8 1.6c3.2 1.1 6.4 2.1 9.6 3 3.2.9 6.5 1.9 9.7 2.7 3.3.8 6.5 1.6 9.8 2.2 3.3.7 6.6 1.2 9.9 1.7 3.3.4 6.6.7 9.9.9 3.3.1 6.6 0 9.9-.2 6.6-.5 13.1-1.8 19.6-3.6 6.4-1.8 12.8-4 19-6.6 6.3-2.5 12.1-5.5 18.3-8.2-5.8 3.6-11.3 7.2-17.3 10.4-3 1.6-6.1 3-9.3 4.4-3.2 1.4-6.4 2.6-9.6 3.7-6.5 2.2-13.3 3.8-20.3 4.5-3.5.4-7 .5-10.5.4-3.5-.1-6.9-.4-10.4-.9-6.9-.9-13.6-2.4-20.2-4.3S57 27.9 50.6 25.4C44.3 22.9 38.1 20 32 17.1c-6.1-3.1-12.2-6.3-17.9-9.9zM135.4 63.6c18.6 3.6 36.3 9.6 52.8 17.8l.4.2c-1.1-.8-2.8-1.9-4.6-3.1-5-3.2-11.6-7-14.4-8.3l-.3-3.7-.2-1.9-.1-1.9c0-1.3-.1-2.5-.2-3.8v-3.8c0-5 .3-10.1.9-15.1.6-5 2.9-21.5 5-26.1-2.6 4.4-7 20.5-8.1 25.6-1.2 5.1-2 10.2-2.6 15.4l-.4 3.9c-.1 1.3-.2 2.6-.2 3.9l-.1 2v2.8c-3.8-1.6-7.7-3.1-11.7-4.5-4-1.4-8.1-2.7-12.2-3.8l-4 4.4zM53.2 58c-4.3 1.2-8.5 2.6-12.6 4.1l-5 1.9-5 2c-.8.3-1.6.7-2.5 1.1l-1.9.9c-.8-5.5-1.8-10.9-3.1-16.3-1.5-6.1-3.4-12.1-5.6-17.9C16.2 30.2 11 17.4 3.7 6.9c5.9 10.9 9.8 24.2 10.8 27.8 1.6 5.9 3 11.9 3.9 17.9.9 6 1.5 12.1 1.8 18.1-.8.4-1.6.8-2.3 1.2C12.5 74.6.2 82.7.2 82.7l.5-.2c17.9-9.1 37.2-15.7 57.6-19.4.1 0 .4-.1.5-.1l-5.6-5z"></path><path class="whitebridge-logo-st1" d="M163.4 67.4c-3.8-1.6-7.7-3.1-11.7-4.5-4-1.4-8.1-2.7-12.2-3.8l-4.1 4.5c18.6 3.6 36.3 9.6 52.8 17.8l.4.2c-1.1-.8-2.8-1.9-4.6-3.1-5-3.2-11.6-7-14.4-8.3l-6.2-2.8zM20.3 70.8c-.8.4-1.6.8-2.3 1.2C12.5 74.6.2 82.7.2 82.7l.5-.2c17.9-9.1 37.2-15.7 57.6-19.4.1 0 .4-.1.5-.1 0 0-5.5-5-5.6-5-4.3 1.2-8.5 2.6-12.6 4.1l-5 1.9-5 2c-.8.3-1.6.7-2.5 1.1l-1.9.9-5.9 2.8z"></path><g><path class="whitebridge-logo-st0" d="M250.4 40.1c-.5-1.6-.9-3.1-1.3-4.5s-.9-3.1-1.5-4.9c-.6-1.9-1.2-3.9-1.8-6.1-.7-2.2-1.3-4.4-2.1-6.8-.7-2.3-1.5-4.6-2.2-6.9-.3-1-.9-1.8-1.6-2.2-.8-.5-1.8-.7-3.1-.8v-.1-.1l.3-2.3c1.5.1 2.7.1 3.7.1h2.3c1.3 0 2.5-.1 3.6-.2 1.2-.1 2.5-.2 4-.4l.2.4-.2 2.1c-1.2.1-2.1.2-2.8.3-.7.2-1.1.4-1.4.7-.3.3-.4.7-.4 1.2 0 .3.1.9.3 2 .2 1 .5 2.3.9 3.8s.8 3.1 1.3 4.8c.5 1.7.9 3.4 1.4 5 .5 1.7.9 3.2 1.3 4.5.4 1.4.8 2.8 1.3 4.5h.3c.5-1.3 1-2.7 1.5-4 .5-1.4 1-2.7 1.5-4.1.5-1.4 1-2.7 1.5-4.1.5-1.4 1-2.7 1.5-4.1.5-1.4 1-2.7 1.5-4-.1-.5-.3-1-.4-1.5-.2-.5-.3-1-.5-1.4-.4-1.1-.9-1.8-1.7-2.3-.8-.5-1.8-.7-3.1-.7l-.1-.2.4-2.3c.9 0 1.7.1 2.3.1.7 0 1.3 0 2 .1h1.6c1.1 0 2.2-.1 3.4-.2 1.2-.1 2.6-.2 4.3-.4l.2.4-.2 2.1c-1.2.1-2.1.2-2.8.3-.7.2-1.1.4-1.4.7-.3.3-.4.7-.4 1.2 0 .2.1.9.3 1.9.2 1 .5 2.2 1 3.7.4 1.5.8 3.1 1.3 4.8.5 1.7.9 3.4 1.4 5 .5 1.7.9 3.2 1.3 4.5.4 1.4.8 2.9 1.3 4.5h.3c.5-1.2 1-2.6 1.6-4.2.6-1.6 1.2-3.2 1.8-5 .6-1.7 1.3-3.5 1.9-5.2.6-1.7 1.2-3.3 1.7-4.7.5-1.4.9-2.7 1.2-3.6.3-1 .4-1.6.4-1.8 0-.7-.3-1.1-.8-1.4-.6-.3-1.5-.4-2.7-.4h-2.6l-.1-.2.4-2.3c1.5.1 2.8.2 4 .3 1.1.1 2.3.1 3.4.1h2.5c.9 0 1.9-.1 3.1-.1l-.4 2.5c-1 0-1.7.2-2.2.5-.4.3-.8 1-1.2 2l-11.1 28.5-3.3 1.2c-.7-2.5-1.4-4.8-2-6.9-.6-2.1-1.3-4.5-2.1-7.2s-1.6-5.5-2.6-8.3h-.3L254 39.2l-3.6.9zM294.1 37.1c1-.1 1.7-.4 2.1-.8.4-.4.6-1.1.6-2.1V6.1c0-1-.2-1.6-.4-2.1-.3-.4-.8-.7-1.5-.7h-1.1l-.2-.2.2-1.7c.8-.1 1.7-.2 2.7-.4 1-.2 1.9-.4 2.8-.6.9-.2 1.7-.4 2.3-.6l.3.7c-.1.2-.3 1.2-.5 2.8-.2 1.6-.3 3.7-.4 6.4-.1 2.6-.2 5.6-.3 8.9.2-.2.7-.5 1.3-.9.7-.4 1.4-.9 2.2-1.4.8-.5 1.6-.9 2.4-1.3.8-.4 1.4-.5 1.9-.5 2.3 0 4.1.6 5.3 1.8 1.3 1.2 1.9 2.9 1.9 5 0 .5 0 1.2-.1 2.3-.1 1.1-.2 2.2-.3 3.5-.1 1.3-.2 2.6-.3 3.7-.1 1.2-.1 2.2-.1 3 0 1 .1 1.8.4 2.2.3.5.8.7 1.4.7h.9c.4 0 .7 0 1-.1l.1.2-.4 2.3c-.6 0-1.3-.1-2.2-.1-.9 0-1.8-.1-2.5-.1-.4 0-.9 0-1.5.1s-1.2.1-1.9.2-1.3.2-2 .3l.2-2.2c1.1-.3 1.8-.7 2.3-1.2.5-.5.7-1.3.7-2.2l.3-10.5c0-1.8-.4-3.1-1.1-4.1-.8-1-1.8-1.4-3.2-1.4-.9 0-2 .3-3.2.8-1.3.6-2.4 1.2-3.5 2.1 0 1.3-.1 2.7-.1 4.1 0 1.4 0 2.8-.1 4.3v4.5c0 1.1.1 1.9.4 2.3.3.4.8.7 1.5.7h.9c.4 0 .7 0 1-.1l.1.2-.5 2.3c-.6 0-1.4-.1-2.3-.1-1 0-1.8-.1-2.5-.1h-2.6c-1 0-1.9 0-2.6.1l.2-1.9zM330.5 37.6c1.1-.3 1.8-.7 2.3-1.2.5-.5.7-1.3.7-2.2V20.8c0-1-.2-1.7-.5-2.2-.3-.5-.8-.7-1.5-.7-.3 0-.7.1-1.3.2l.2-2c.9-.1 1.8-.3 2.7-.5.9-.2 1.7-.3 2.5-.5.7-.2 1.6-.3 2.5-.6l.3.6c-.1.4-.3 1.1-.4 2.3s-.3 2.7-.4 4.4c-.1 1.7-.2 3.6-.3 5.7-.1 2.1-.1 4.1-.1 6.2 0 1 .1 1.8.4 2.2.3.5.8.7 1.4.7.3 0 .9 0 1.8-.1l.1.2-.4 2.3c-.6 0-1.1-.1-1.6-.1s-1 0-1.5-.1h-1.6c-.7 0-1.5.1-2.4.2-.8.1-1.9.3-3.1.5l.2-1.9zm4.4-29.2c-.9 0-1.5-.3-2-.8-.4-.6-.6-1.2-.6-1.8 0-.8.3-1.6.9-2.2.6-.6 1.3-.9 2.2-.9.8 0 1.5.3 1.9.8.4.5.7 1.2.7 1.9 0 .8-.3 1.6-.9 2.2-.5.5-1.3.8-2.2.8zM361.9 39.7c-2.4 0-4.1-.5-5.1-1.5s-1.5-2.6-1.5-4.9v-13c0-1-.2-1.6-.6-2-.4-.4-1.2-.6-2.4-.6l-.2-.3.3-1.6c.8-.4 1.7-.9 2.5-1.5.8-.5 1.5-1.1 2.1-1.6.6-.5 1.3-1.1 2-1.8l1.1.4c-.2 1.3-.3 2.7-.4 4l7.8-.2.2.2-.5 2.8-7.7-.2c-.1 1.7-.2 3.6-.3 5.8-.1 2.2-.1 4.7-.1 7.4 0 1.8.3 3.1.9 3.8.6.7 1.7 1.1 3.2 1.1.9 0 2.1-.3 3.6-1l.5 1.4c-.8.6-1.6 1.2-2.2 1.6-.6.4-1.2.8-1.8 1.1-.6.4-1.1.6-1.4.6zM389.8 39.8c-2.2 0-4.2-.5-5.8-1.5-1.7-1-2.9-2.3-3.9-4.1-.9-1.7-1.4-3.8-1.4-6.1 0-1.8.3-3.5.9-5.1.6-1.6 1.5-3.1 2.6-4.3 1.1-1.2 2.3-2.2 3.7-3 1.4-.7 2.9-1.1 4.5-1.1 5.2 0 7.9 2.6 7.9 7.7 0 .5 0 .9-.1 1.4-.1.5-.1.9-.2 1.2l-.7.6h-14.6c0 3.1.5 5.6 1.7 7.4 1.2 1.8 2.8 2.9 5 3.2 2.1.3 4.7-.2 7.6-1.6l.3.1.6 1.5c-.7.5-1.5 1-2.5 1.6-1 .6-1.9 1-2.9 1.4-1 .5-1.9.7-2.7.7zm-6.9-16.2l9.6-.5c.5-.1.9-.2 1.1-.4.2-.2.3-.5.3-1.1 0-1.4-.4-2.5-1.1-3.2-.8-.7-1.8-1.1-3.2-1.1-1.6 0-3 .6-4.2 1.7-1.4 1.1-2.2 2.7-2.5 4.6zM426.9 39.2c-.7 0-1.4 0-2.1.1-.7.1-1.4.1-2 .2-.6.1-1.3.2-2 .3l.3-2.4c1.7-.3 2.8-.8 3.3-1.4.5-.6.8-1.7.8-3.1l.1-22.2c0-1.1-.1-1.9-.4-2.3-.2-.4-.8-.6-1.6-.6-.3 0-.9 0-1.8.1l-.1-.2.4-2.3c.8 0 1.5.1 2.2.1.6 0 1.3 0 2 .1H429.1c.5 0 1.1 0 1.6-.1.6 0 1.1 0 1.6-.1.5 0 1 0 1.6-.1 3.3 0 5.9.7 7.7 2.1s2.7 3.4 2.7 6c0 1.7-.5 3.3-1.6 4.7-1.1 1.4-2.6 2.6-4.5 3.4 1.7.4 3.2.9 4.4 1.7 1.2.8 2.1 1.7 2.8 2.8.7 1.1 1 2.3 1 3.6 0 1.8-.6 3.5-1.7 5.1-1.1 1.5-2.7 2.8-4.5 3.7-1.9.9-3.9 1.4-6.1 1.4-.6 0-1.1 0-1.7-.1s-1.2-.1-1.7-.2c-.6-.1-1.2-.1-1.8-.2-.6-.1-1.3-.1-2-.1zm2.4-15.8l-.2 9.9c0 1.3.5 2.3 1.4 2.9.9.6 2.5.8 4.6.8 2.1 0 3.8-.6 5-1.8 1.2-1.2 1.8-2.8 1.8-4.8 0-3.9-2.4-6.3-7.1-7.1l-5.5.1zm.1-2.8c1 .1 1.9.1 2.6.2.7.1 1.4.1 2 .2.6 0 1 .1 1.2.1 1-.4 1.8-.8 2.5-1.3s1.2-1.2 1.7-2.1c.5-.9.7-2 .7-3.5 0-2.3-.8-4-2.3-5-1.5-1.1-3.9-1.6-7-1.6-.4 0-.6.1-.7.2-.1.2-.2.5-.2 1-.1 1.1-.1 2.3-.2 3.6-.1 1.3-.1 2.6-.2 4 0 1.3 0 2.8-.1 4.2zM458.7 37.3c1.1-.1 1.8-.4 2.1-1 .4-.6.5-1.7.5-3.4V21.3c0-1.2-.2-2-.5-2.5s-.8-.7-1.5-.7c-.3 0-.7.1-1.1.2l-.3-.4.2-1.6c1.1-.2 2.2-.4 3.3-.7 1.1-.2 2.4-.5 3.9-.9l.4.3c-.2 1.1-.3 2.1-.4 2.9-.1.8-.1 1.7-.1 2.5l.2.2c1.1-1.7 2.3-3 3.7-4.1 1.4-1.1 2.6-1.6 3.7-1.6.6 0 1.1.1 1.6.2l.2.2c-.1 1-.3 1.8-.4 2.6-.1.8-.2 1.6-.3 2.5-.1.9-.2 1.7-.2 2.5l-2.1.2c0-1.4-.1-2.4-.3-2.9-.2-.5-.6-.7-1.2-.7-.8 0-1.6.3-2.5 1-.9.6-1.7 1.5-2.4 2.6-.1 1.3-.1 2.4-.2 3.4 0 1-.1 2-.1 3s-.1 2-.1 2.7c0 .8-.1 1.3-.1 1.6 0 1.2.2 2 .5 2.4.4.4 1 .6 2 .6.4 0 1.2 0 2.3-.1l.1.2-.5 2.3c-.7 0-1.3-.1-1.9-.1h-3.5c-1 0-2 0-2.8.1-.8 0-1.8.1-2.7.2l.5-2.1zM486.4 37.6c1.1-.3 1.8-.7 2.3-1.2.5-.5.7-1.3.7-2.2V20.8c0-1-.2-1.7-.5-2.2-.3-.5-.8-.7-1.5-.7-.3 0-.7.1-1.3.2l.2-2c.9-.1 1.8-.3 2.7-.5.9-.2 1.7-.3 2.5-.5.7-.2 1.6-.3 2.5-.6l.3.6c-.1.4-.3 1.1-.4 2.3-.2 1.2-.3 2.7-.4 4.4-.1 1.7-.2 3.6-.3 5.7-.1 2.1-.1 4.1-.1 6.2 0 1 .1 1.8.4 2.2.3.5.8.7 1.4.7.3 0 .9 0 1.8-.1l.1.2-.4 2.3c-.6 0-1.1-.1-1.6-.1s-1 0-1.5-.1h-1.6c-.7 0-1.5.1-2.4.2-.8.1-1.9.3-3.1.5l.2-1.9zm4.4-29.2c-.9 0-1.5-.3-2-.8-.4-.6-.6-1.2-.6-1.8 0-.8.3-1.6.9-2.2.6-.6 1.3-.9 2.2-.9.8 0 1.5.3 1.9.8.4.5.7 1.2.7 1.9 0 .8-.3 1.6-.9 2.2-.5.5-1.3.8-2.2.8zM530 39.8c-2.7 0-4.3-1.2-4.7-3.7l-.4-.2c-1.8 1.2-3.3 2.2-4.4 2.8-1.1.6-1.8 1-2.2 1-2 0-3.8-.5-5.3-1.4-1.5-.9-2.7-2.2-3.6-3.9-.9-1.7-1.3-3.6-1.3-5.8 0-2.5.6-4.8 1.8-6.9 1.2-2.1 2.8-3.8 4.8-5 2-1.2 4.2-1.9 6.6-1.9.5 0 1 0 1.6.1.6 0 1.3.1 2 .2v-9c0-1-.2-1.7-.5-2.2s-.8-.7-1.5-.7c-.3 0-.7.1-1.3.2l.2-2c.9-.1 1.8-.2 2.7-.4.9-.2 1.8-.4 2.5-.5.8-.2 1.6-.4 2.5-.6l.3.7c-.1.2-.3 1-.4 2.4-.1 1.3-.3 3.1-.4 5.3-.1 2.2-.2 4.6-.3 7.4-.1 2.7-.2 5.6-.2 8.7-.1 3.1-.1 6.1-.1 9.2 0 .8.2 1.4.6 1.8.4.4.9.6 1.6.6.6 0 1.1-.1 1.6-.3.5-.2 1-.6 1.6-1l.7.8c-.5.7-1 1.3-1.4 1.8-.4.5-.9 1-1.5 1.5s-1 .8-1.6 1zm-10.8-3.6c.6 0 1.3-.1 2-.4.7-.3 1.3-.6 1.9-1s1.2-.8 1.9-1.4V18.9c-1.8-.8-3.5-1.2-5.1-1.2-2.4 0-4.2.8-5.6 2.4-1.4 1.6-2 3.8-2 6.6 0 1.8.3 3.4.9 4.8.6 1.4 1.5 2.6 2.5 3.4 1 .9 2.2 1.3 3.5 1.3zM554.6 51.9c-1.7 0-3.1-.3-4.3-.8-1.2-.6-2.1-1.4-2.8-2.4-.7-1.1-1-2.3-1-3.7.5-.6 1.2-1.3 2.1-2.2.9-.9 2-1.7 3.1-2.6v-.3c-1.8-.3-3.2-.9-4.2-1.8s-1.5-2-1.6-3.4c.6-.6 1.3-1.2 2.1-1.8.7-.6 1.5-1.1 2.4-1.6v-.7l2.7.9c-1.1.6-1.9 1.1-2.3 1.5-.5.4-.7.9-.7 1.3 0 .7.4 1.2 1.3 1.6.8.3 1.9.6 3.2.7 1.3.2 2.7.3 4.2.5s2.9.4 4.2.8 2.4.9 3.2 1.6c.8.7 1.3 1.7 1.3 3 0 1.2-.4 2.3-1.1 3.4-.7 1.1-1.7 2.1-3 3-1.2.9-2.6 1.6-4.2 2.1-1.4.7-3 .9-4.6.9zm.8-19.6c-1.7 0-3.2-.3-4.6-1-1.3-.7-2.4-1.6-3.1-2.9-.8-1.2-1.1-2.6-1.1-4.1 0-1.8.4-3.4 1.3-4.8s2.1-2.6 3.6-3.5c1.5-.9 3.1-1.3 4.9-1.3 1 0 1.9.1 2.8.3.9.2 1.7.3 2.3.3.7-.1 1.7-.2 3-.5s2.7-.6 4.3-1.1l.2.2-.6 3-2.4.3c-.8.1-1.5.1-2.1.2l-.2.3c1.4 1.5 2.1 3.3 2.1 5.4 0 1.7-.5 3.3-1.4 4.7-.9 1.4-2.2 2.5-3.7 3.4-1.7.7-3.4 1.1-5.3 1.1zm1.2-2.3c1.6 0 2.9-.5 3.8-1.5.9-1 1.4-2.4 1.4-4.2 0-2-.6-3.7-1.7-5-1.1-1.3-2.6-1.9-4.4-1.9-1.6 0-2.9.5-3.8 1.6-.9 1.1-1.4 2.5-1.4 4.3 0 2 .6 3.6 1.7 4.9 1.1 1.2 2.6 1.8 4.4 1.8zm-.2 19.4c1.4 0 2.7-.2 3.9-.7 1.2-.5 2.2-1.1 2.9-1.9.7-.8 1.1-1.7 1.1-2.6 0-.7-.3-1.3-.8-1.7-.5-.4-1.5-.8-3-1.1s-3.6-.7-6.4-1c-1.1.7-1.9 1.6-2.4 2.5-.6.9-.8 1.8-.8 2.7 0 1.2.5 2.2 1.5 2.9.9.5 2.3.9 4 .9zM591.6 39.8c-2.2 0-4.2-.5-5.8-1.5-1.7-1-2.9-2.3-3.9-4.1-.9-1.7-1.4-3.8-1.4-6.1 0-1.8.3-3.5.9-5.1.6-1.6 1.5-3.1 2.6-4.3 1.1-1.2 2.3-2.2 3.7-3 1.4-.7 2.9-1.1 4.5-1.1 5.2 0 7.9 2.6 7.9 7.7 0 .5 0 .9-.1 1.4-.1.5-.1.9-.2 1.2l-.7.6h-14.6c0 3.1.5 5.6 1.7 7.4 1.2 1.8 2.8 2.9 5 3.2 2.1.3 4.7-.2 7.6-1.6l.3.1.6 1.5c-.7.5-1.5 1-2.5 1.6-1 .6-1.9 1-2.9 1.4-1.1.5-2 .7-2.7.7zm-7-16.2l9.6-.5c.5-.1.9-.2 1.1-.4.2-.2.3-.5.3-1.1 0-1.4-.4-2.5-1.1-3.2-.8-.7-1.8-1.1-3.2-1.1-1.6 0-3 .6-4.2 1.7-1.4 1.1-2.1 2.7-2.5 4.6z"></path></g><g><path class="whitebridge-logo-st1" d="M299.4 76.7c.1.7.4 1.1.7 1.4.3.3.8.4 1.5.5l.1.1-.3 1c-.7 0-1.2-.1-1.6-.1h-1.1c-.6 0-1.2 0-1.8.1-.6 0-1.2.1-2 .2l-.1-.2.2-1c1-.1 1.6-.2 2-.4.3-.2.5-.5.5-1v-.5c0-.2 0-.4-.1-.5l-.5-3h-3.7c-.4 0-.7.1-1 .1-.3 0-.6.1-.8.1l-1.3 2.9c-.2.5-.4.9-.4 1.2 0 .6.5 1 1.4 1h1.5v.1l-.3 1.1c-.7-.1-1.3-.1-1.8-.1h-2.8c-.4 0-.9 0-1.5.1l.3-1.2c.5-.1.9-.2 1.2-.5.3-.3.7-.8 1-1.6l6.5-13.5 1.5-.4h.2c.1.8.2 1.6.3 2.3.1.7.2 1.5.4 2.5s.3 1.9.5 3 .4 2.1.6 3.2c.3 1 .5 2.1.7 3.1zm-7.3-4.2h2.2c.4 0 .8 0 1.3-.1.5 0 .9-.1 1.1-.1l-1.2-7h-.2l-3.2 7.2zM308.8 76c0 .9.2 1.6.7 2s1.1.7 1.9.7c.5 0 .9-.2 1.3-.5s.5-.7.5-1.2-.2-.9-.5-1.3-.7-.8-1.2-1.1c-.4-.3-.8-.7-1.1-1-.4-.4-.7-.7-1-1.2-.3-.4-.4-.9-.4-1.4 0-.7.2-1.3.6-1.8.4-.6.9-1 1.5-1.3.6-.3 1.3-.5 2-.5.6 0 1.1.1 1.6.3.5.2.8.4 1.1.8-.1.3-.3.7-.4 1.1-.2.4-.3.7-.5 1h-.4c-.2-.6-.5-1-.9-1.4-.4-.3-.9-.5-1.4-.5-.4 0-.8.1-1.1.4-.3.3-.4.6-.4 1 0 .3.1.6.2.8.1.3.3.5.6.8l1 1c.4.3.7.6 1.1 1s.6.7.9 1.1c.2.4.3.8.3 1.3 0 .7-.2 1.3-.6 1.9-.4.6-1 1.1-1.6 1.5-.7.4-1.4.6-2.1.6-.8 0-1.5-.1-2-.4-.6-.3-.9-.6-1-1.1l.3-.9c.1-.3.2-.6.4-.9.1-.3.2-.5.3-.7h.3zM323 76c0 .9.2 1.6.7 2 .4.5 1.1.7 1.9.7.5 0 .9-.2 1.3-.5s.5-.7.5-1.2-.2-.9-.5-1.3-.7-.8-1.2-1.1c-.4-.3-.8-.7-1.1-1-.4-.4-.7-.7-1-1.2-.3-.4-.4-.9-.4-1.4 0-.7.2-1.3.6-1.8.4-.6.9-1 1.5-1.3.6-.3 1.3-.5 2-.5.6 0 1.1.1 1.6.3.5.2.8.4 1.1.8-.1.3-.3.7-.4 1.1-.2.4-.3.7-.5 1h-.4c-.2-.6-.5-1-.9-1.4-.4-.3-.9-.5-1.4-.5-.4 0-.8.1-1.1.4-.3.3-.4.6-.4 1 0 .3.1.6.2.8.1.3.3.5.6.8l1 1c.4.3.7.6 1.1 1s.6.7.9 1.1c.2.4.3.8.3 1.3 0 .7-.2 1.3-.6 1.9-.4.6-1 1.1-1.6 1.5-.7.4-1.4.6-2.1.6-.8 0-1.5-.1-2-.4-.6-.3-.9-.6-1-1.1l.3-.9c.1-.3.2-.6.4-.9.1-.3.2-.5.3-.7h.3zM343.8 69.5c0 .7-.2 1.4-.6 2-.4.6-1.1 1.1-2 1.6-.9.5-2.1 1-3.6 1.5-.1 1.1.1 2 .4 2.7.3.7.8 1 1.4 1 .5 0 1.1-.2 1.6-.6.5-.4 1-1 1.3-1.6h.4l.4.6c-.3.6-.7 1.2-1.2 1.6-.5.5-1 .9-1.5 1.1-.5.3-1 .4-1.5.4-1 0-1.7-.4-2.2-1.2-.5-.8-.8-1.8-.8-3.2 0-1 .2-2 .5-3s.8-1.9 1.4-2.6c.6-.8 1.2-1.4 1.9-1.9s1.4-.7 2.2-.7c.7 0 1.2.2 1.5.5.2.6.4 1.1.4 1.8zm-2.9-.6c-.5 0-.9.2-1.4.6s-.8 1-1.2 1.7c-.3.7-.6 1.5-.7 2.3 1.5-.5 2.6-1 3.3-1.5.7-.5 1-1.2 1-1.9 0-.8-.3-1.2-1-1.2zM355.3 76.3l.3.6c-.5.5-1 1.1-1.5 1.5-.5.5-1 .8-1.4 1.1-.4.3-.8.4-1.1.4-.5 0-.9-.2-1.2-.5-.3-.3-.4-.7-.3-1.3l1.5-9.1-.1-.1-1.8-.1-.1-.1.1-.8 2.1-.3c.1-.5.1-1 .2-1.5s.1-1 .2-1.7l2.4-.9.2.3c-.2.7-.4 1.4-.6 1.9-.2.6-.3 1.2-.5 1.9h3.2l.1.1-.2 1.1h-3.1l-.3.2-1.6 8.1c-.1.6.1.9.6.9.2 0 .6-.1 1-.4.4-.3.9-.7 1.6-1.4l.3.1zM383.3 80.1c-.5-2.1-.9-4-1.3-5.7-.4-1.7-.7-3.2-1-4.7-.3-1.4-.6-2.8-.9-4.1h-.1c-.5 2.4-.9 4.4-1.2 6-.3 1.6-.5 2.8-.7 3.7-.2.9-.3 1.5-.4 1.9-.1.4-.1.6-.1.6 0 .4.2.7.7.7h1.1l-.4 1.1c-.4 0-.7-.1-1-.1H375.8c-.2 0-.4 0-.6.1-.2 0-.5.1-.8.1l.3-1.1c.5-.1 1-.3 1.2-.6.3-.3.5-.8.6-1.5.1-.4.2-.9.3-1.5.1-.7.3-1.4.5-2.3.2-.8.4-1.7.6-2.6.2-.9.4-1.7.5-2.5.2-.8.3-1.4.4-1.9.1-.5.1-.8.1-.9 0-.4-.2-.7-.5-.9-.3-.2-.8-.3-1.6-.4l-.1-.1.3-.8c.7 0 1.3.1 1.8.1h1.7c.3 0 .6 0 1-.1.2 1.1.4 2.3.7 3.6s.5 2.4.8 3.6c.3 1.2.5 2.3.8 3.4.3 1.1.5 2 .7 2.8h.1c.4-.9 1-2 1.6-3.4.6-1.4 1.3-3 2.1-4.7.7-1.7 1.5-3.4 2.2-5.2h.3c.2 0 .4 0 .7.1h.6c.3 0 .7 0 1.3-.1.6 0 1.1-.1 1.5-.1v.2l-.2.9c-.8.1-1.3.2-1.6.5-.3.2-.5.5-.5 1 0 .3-.1.8-.1 1.5s-.1 1.5-.1 2.3c0 .9-.1 1.8-.1 2.7 0 .9-.1 1.8-.1 2.5 0 .8 0 1.4-.1 1.9 0 1 0 1.7.2 2 .1.3.4.5.8.5h.7l-.4 1.1c-.3 0-.7 0-1.2-.1H390c-.2 0-.4 0-.7.1-.3 0-.6.1-.9.1l.2-1.1c.5-.1.9-.2 1.2-.4.3-.2.4-.5.5-.9 0-.2 0-.6.1-1.3 0-.7.1-1.6.1-2.7.1-1.1.1-2.3.2-3.6.1-1.3.1-2.7.2-4h-.1c-.4.8-.8 1.7-1.2 2.6-.4.9-.9 1.9-1.4 3-.5 1.1-1.1 2.3-1.8 3.8-.7 1.4-1.5 3.1-2.3 4.9h-.8zM408.7 78.1c.1 0 .2 0 .3-.1.1-.1.3-.2.6-.4s.7-.6 1.2-1h.3l.3.6c-.8.7-1.4 1.3-1.9 1.7-.5.4-.9.7-1.1.8-.3.2-.5.2-.8.2-.2 0-.4-.1-.6-.2-.2-.1-.2-.3-.2-.5s.1-.8.3-1.8c.2-1 .5-2.2.8-3.8l-.2-.1c-.9 1.6-1.7 2.9-2.5 3.9s-1.6 1.8-2.5 2.4c-.7 0-1.2-.3-1.5-.9-.4-.6-.6-1.5-.6-2.6s.2-2.2.5-3.2.8-2 1.4-2.9c.6-.9 1.2-1.5 2-2 .7-.5 1.5-.8 2.2-.8l2.6.4.2-.7h.1l.8.4.2.3c-.3.9-.6 2-.8 3.2-.3 1.2-.5 2.4-.8 3.6-.2 1.2-.4 2.3-.6 3.3l.3.2zm-5.4-.3c.2 0 .5-.2.9-.6.4-.4.8-1 1.3-1.8.5-.7 1-1.6 1.5-2.6l1.5-3c-.4-.2-.9-.5-1.3-.6s-.9-.3-1.2-.3c-.6 0-1.2.3-1.7.9-.5.6-1 1.3-1.3 2.3-.3.9-.5 2-.5 3 0 .8.1 1.4.2 1.9.2.6.4.8.6.8zM428 76.5h-.3c-.5.5-.9.8-1.2 1-.3.2-.5.4-.6.4-.1.1-.2.1-.3.1l-.1-.1c.1-.6.3-1.2.5-1.9s.5-1.5.7-2.2c.3-.8.5-1.5.7-2.2.2-.7.3-1.2.3-1.7 0-.7-.2-1.3-.6-1.8-.4-.5-.9-.7-1.4-.7-.8.5-1.7 1.3-2.6 2.5-.9 1.2-1.8 2.7-2.8 4.5l-.1-.1c.1-.5.2-1.1.3-1.7l.6-2.4c.2-.8.4-1.5.7-2.2l-.2-.3c-.8.1-1.6.1-2.4.1h-1.9l-.2 1h1.1c.4 0 .7.1.9.3.2.2.3.4.3.8 0 .1 0 .5-.1 1.2-.1.6-.2 1.4-.3 2.4-.1.9-.3 1.9-.5 3s-.4 2.1-.5 3.2l.2.2c.1 0 .3 0 .6-.1s.5-.2.7-.3c.2-.1.3-.2.3-.2l.3-2.2c.5-1.3 1.1-2.5 1.7-3.5.7-1.2 1.3-2.1 1.8-2.8.6-.7 1-1 1.4-1 .3 0 .5.1.6.3.2.2.3.5.3.8 0 .4-.1.8-.2 1.4-.1.6-.3 1.2-.5 1.8-.2.7-.4 1.3-.6 2-.2.6-.4 1.2-.5 1.8-.1.5-.2 1-.2 1.3 0 .5.3.8.8.8.2 0 .5-.1.8-.3.3-.2.7-.5 1.2-.9s1-.9 1.6-1.6l-.3-.7zM442 78.1c.1 0 .2 0 .3-.1.1-.1.3-.2.6-.4s.7-.6 1.2-1h.3l.3.6c-.8.7-1.4 1.3-1.9 1.7-.5.4-.9.7-1.1.8-.3.2-.5.2-.8.2-.2 0-.4-.1-.6-.2-.2-.1-.2-.3-.2-.5s.1-.8.3-1.8c.2-1 .5-2.2.8-3.8l-.2-.1c-.9 1.6-1.7 2.9-2.5 3.9s-1.6 1.8-2.5 2.4c-.7 0-1.2-.3-1.5-.9-.4-.6-.6-1.5-.6-2.6s.2-2.2.5-3.2c.3-1.1.8-2 1.4-2.9.6-.9 1.2-1.5 2-2 .7-.5 1.5-.8 2.2-.8l2.6.4.2-.7h.1l.8.4.2.3c-.3.9-.6 2-.8 3.2-.3 1.2-.5 2.4-.8 3.6-.2 1.2-.4 2.3-.6 3.3l.3.2zm-5.3-.3c.2 0 .5-.2.9-.6.4-.4.8-1 1.3-1.8.5-.7 1-1.6 1.5-2.6l1.5-3c-.4-.2-.9-.5-1.3-.6-.5-.2-.9-.3-1.2-.3-.6 0-1.2.3-1.7.9-.5.6-1 1.3-1.3 2.3-.3.9-.5 2-.5 3 0 .8.1 1.4.2 1.9.2.6.4.8.6.8zM454.8 86c-.7 0-1.4-.2-2.1-.5-.7-.3-1.2-.7-1.6-1.3s-.6-1-.6-1.6l.1-.1c.3-.2.7-.5 1.2-.9.5-.3 1.1-.7 1.7-1.1.6-.4 1.3-.8 2-1.2v-.2c-.4-.2-.8-.7-1-1.3-.2-.6-.4-1.3-.4-2.1 0-1 .2-2 .5-2.9.3-1 .8-1.9 1.3-2.7s1.2-1.4 1.9-1.9 1.4-.7 2.1-.7l2.7.4.3-.7h.1l.8.4.2.2c-.4.8-.8 1.5-1.1 2.2-.3.7-.5 1.3-.7 1.8-.2.5-.3 1.1-.3 1.5-.1.4-.1 1-.1 1.6 0 .6-.1 1.2-.1 1.8 0 .6-.1 1.2-.1 1.7s-.1.9-.1 1.2c-.1.6-.3 1.2-.6 1.8-.3.6-.7 1.2-1.2 1.7l-1.5 1.5c-.6.4-1.2.8-1.8 1-.4.3-1 .4-1.6.4zm.8-1.5c1.1 0 2.1-.4 2.9-1.2.8-.8 1.3-1.9 1.5-3.3l.7-5.5-.2-.1c-.5 1-1 1.8-1.4 2.4-.4.6-.8 1.1-1.1 1.5-.4.4-.8.7-1.2 1.1-.5.4-1.1.8-1.8 1.2-.6.4-1.2.8-1.6 1.1-.4.3-.7.6-.7.8 0 .3.2.6.5.9.3.3.7.6 1.2.8.3.2.8.3 1.2.3zm1.4-7.2c.3 0 .6-.3 1.1-.9.5-.6 1-1.5 1.6-2.6.6-1.1 1.3-2.5 2-4.1-.4-.2-.7-.3-1-.4l-.9-.3c-.3-.1-.5-.1-.8-.1-.5 0-1 .3-1.5.8s-.9 1.2-1.2 2.1c-.3.8-.4 1.7-.4 2.7 0 .8.1 1.4.3 2s.6.8.8.8zM477.8 69.5c0 .7-.2 1.4-.6 2-.4.6-1.1 1.1-2 1.6-.9.5-2.1 1-3.6 1.5-.1 1.1.1 2 .4 2.7.3.7.8 1 1.4 1 .5 0 1.1-.2 1.6-.6.5-.4 1-1 1.3-1.6h.4l.4.6c-.3.6-.7 1.2-1.2 1.6-.5.5-1 .9-1.5 1.1-.5.3-1 .4-1.5.4-1 0-1.7-.4-2.2-1.2-.5-.8-.8-1.8-.8-3.2 0-1 .2-2 .5-3s.8-1.9 1.4-2.6c.6-.8 1.2-1.4 1.9-1.9s1.4-.7 2.2-.7c.7 0 1.2.2 1.5.5.2.6.4 1.1.4 1.8zm-2.9-.6c-.5 0-.9.2-1.4.6-.4.4-.8 1-1.2 1.7-.3.7-.6 1.5-.7 2.3 1.5-.5 2.6-1 3.3-1.5.7-.5 1-1.2 1-1.9.1-.8-.3-1.2-1-1.2zM499.8 78.1c.1 0 .2 0 .3-.1.1-.1.3-.2.6-.4s.7-.6 1.2-1h.3l.3.6c-.7.6-1.2 1.2-1.7 1.6-.5.4-.9.7-1.2.9-.3.2-.6.3-.8.3-.5 0-.8-.3-.8-.8 0-.3.1-.7.2-1.3.1-.5.3-1.1.5-1.8s.4-1.3.6-2c.2-.7.4-1.3.5-1.8.1-.6.2-1 .2-1.4 0-.3-.1-.6-.3-.8-.2-.2-.4-.3-.6-.3-.4 0-.8.3-1.4 1-.6.7-1.2 1.6-1.8 2.7-.7 1.2-1.3 2.5-2 4l-.3 1.7c0 .1-.1.1-.3.2-.2.1-.5.2-.7.3-.3.1-.5.1-.6.1l-.2-.2c.2-.8.3-1.4.5-2 .1-.6.3-1.2.4-2 .1-.7.3-1.4.4-2 .1-.7.2-1.2.3-1.7.1-.5.1-.8.1-1 0-.3-.1-.6-.3-.8-.2-.2-.4-.3-.6-.3-.4 0-.8.3-1.3.9-.5.6-1.1 1.4-1.7 2.5-.6 1.1-1.2 2.3-1.8 3.8l-.3 2.2c0 .1-.1.1-.3.2-.2.1-.5.2-.7.3-.3.1-.5.1-.6.1l-.2-.2c.1-.9.3-1.6.4-2.3.1-.7.2-1.4.4-2.2.1-.8.3-1.6.4-2.3.1-.7.2-1.4.3-1.9.1-.5.1-.9.1-1 0-.4-.1-.6-.3-.8-.2-.2-.5-.3-.9-.3H485l.2-1h1.3c.5 0 1 0 1.4-.1.4 0 1 0 1.5-.1l.2.3c-.2.7-.4 1.4-.6 2-.2.6-.4 1.3-.5 2-.2.7-.3 1.5-.5 2.3l.1.1c.9-1.8 1.8-3.3 2.7-4.5.9-1.2 1.8-2 2.6-2.5.6 0 1 .2 1.4.7.4.5.6 1.1.6 1.7 0 .2-.1.6-.2 1.1-.1.5-.2 1-.4 1.5-.1.5-.3 1.1-.5 1.9l.1.1c.9-1.7 1.8-3.2 2.7-4.4 1-1.2 1.9-2.1 2.7-2.6.6 0 1 .2 1.4.7.4.5.6 1.1.6 1.8 0 .5-.1 1.1-.3 1.7-.2.7-.4 1.4-.7 2.2-.3.8-.5 1.5-.8 2.2-.3.7-.5 1.4-.6 1.9l.4.3zM516.4 69.5c0 .7-.2 1.4-.6 2-.4.6-1.1 1.1-2 1.6-.9.5-2.1 1-3.6 1.5-.1 1.1.1 2 .4 2.7.3.7.8 1 1.4 1 .5 0 1.1-.2 1.6-.6.5-.4 1-1 1.3-1.6h.4l.4.6c-.3.6-.7 1.2-1.2 1.6-.5.5-1 .9-1.5 1.1-.5.3-1 .4-1.5.4-1 0-1.7-.4-2.2-1.2-.5-.8-.8-1.8-.8-3.2 0-1 .2-2 .5-3s.8-1.9 1.4-2.6c.6-.8 1.2-1.4 1.9-1.9s1.4-.7 2.2-.7c.7 0 1.2.2 1.5.5.2.6.4 1.1.4 1.8zm-3-.6c-.5 0-.9.2-1.4.6-.4.4-.8 1-1.2 1.7-.3.7-.6 1.5-.7 2.3 1.5-.5 2.6-1 3.3-1.5.7-.5 1-1.2 1-1.9.1-.8-.3-1.2-1-1.2zM533 76.5h-.3c-.5.5-.9.8-1.2 1-.3.2-.5.4-.6.4-.1.1-.2.1-.3.1l-.1-.1c.1-.6.3-1.2.5-1.9s.5-1.5.7-2.2c.3-.8.5-1.5.7-2.2.2-.7.3-1.2.3-1.7 0-.7-.2-1.3-.6-1.8-.4-.5-.9-.7-1.4-.7-.8.5-1.7 1.3-2.6 2.5-.9 1.2-1.8 2.7-2.8 4.5l-.1-.1c.1-.5.2-1.1.3-1.7l.6-2.4c.2-.8.4-1.5.7-2.2l-.2-.3c-.8.1-1.6.1-2.4.1h-1.9l-.2 1h1.1c.4 0 .7.1.9.3.2.2.3.4.3.8 0 .1 0 .5-.1 1.2-.1.6-.2 1.4-.3 2.4-.1.9-.3 1.9-.5 3s-.4 2.1-.5 3.2l.2.2c.1 0 .3 0 .6-.1s.5-.2.7-.3c.2-.1.3-.2.3-.2l.3-2.2c.5-1.3 1.1-2.5 1.7-3.5.7-1.2 1.3-2.1 1.8-2.8.6-.7 1-1 1.4-1 .3 0 .5.1.6.3.2.2.3.5.3.8 0 .4-.1.8-.2 1.4-.1.6-.3 1.2-.5 1.8-.2.7-.4 1.3-.6 2-.2.6-.4 1.2-.5 1.8-.1.5-.2 1-.2 1.3 0 .5.3.8.8.8.2 0 .5-.1.8-.3.3-.2.7-.5 1.2-.9s1-.9 1.6-1.6l-.3-.7zM544.5 76.3l.3.6c-.5.5-1 1.1-1.5 1.5-.5.5-1 .8-1.4 1.1-.4.3-.8.4-1.1.4-.5 0-.9-.2-1.2-.5-.3-.3-.4-.7-.3-1.3l1.5-9.1-.1-.1-1.8-.1-.1-.1.1-.8 2.1-.3c.1-.5.1-1 .2-1.5s.1-1 .2-1.7l2.4-.9.2.3c-.2.7-.4 1.4-.6 1.9-.2.6-.3 1.2-.5 1.9h3.2l.1.1-.2 1.1h-3.1l-.3.2-1.6 8.1c-.1.6.1.9.6.9.2 0 .6-.1 1-.4.4-.3.9-.7 1.6-1.4l.3.1z"></path></g></svg>
